<?xml version="1.0" encoding="utf-8"?>
<!-- Generator: Adobe Illustrator 25.2.1, SVG Export Plug-In . SVG Version: 6.00 Build 0)  -->
<svg id="Warstwa_1" xmlns="http://www.w3.org/2000/svg" x="0px" y="0px"
	 viewBox="0 0 2171.08 1875.25" xml:space="preserve">
<style type="text/css">
	.st0{fill:#444444;}
	.st1{fill:#FFFFFF;}
	.st2{fill:#424141;}
	.st3{fill:#2F82C4;}
	.st4{fill:#E9473D;}
	.st5{fill:#DFCD30;}
	.st6{fill:#8FB267;}
	.st7{fill:#FEEB15;stroke:#010202;stroke-width:0.25;stroke-miterlimit:10;}
	.st8{fill:#010202;}
	.st9{fill:#CDCCCC;}
</style>
<path class="st0" d="M1433.37,1076.22c-151.09,0-273.57,119.27-273.57,266.4s122.48,266.4,273.57,266.4
	c151.09,0,273.57-119.27,273.57-266.4S1584.46,1076.22,1433.37,1076.22z M1572.81,1175.62c1.46-0.56,6.68-2.35,12.84-0.29
	c5.61,1.87,8.62,5.8,9.56,7.16c7.36,8.03,15.48,18,23.4,30.04c7.81,11.88,13.69,23.15,18.12,32.99c0.35,1.02,2,6.14-0.67,11.46
	c-1.78,3.54-4.56,5.36-5.79,6.06c-31.92,6.53-63.85,13.06-95.77,19.59c-2.6-1.37-7.55-4.43-11.58-10.26
	c-4.56-6.59-5.45-13.12-5.67-16.09c8.15-11.83,16.3-23.66,24.45-35.49c0.22-0.32,25.45-36.94,25.66-37.26
	C1567.37,1183.52,1572.8,1175.64,1572.81,1175.62z M1456.57,1120.94c5.45-1.9,10.12-1.15,12.07-0.73
	c10.7,2.08,23.15,5.27,36.67,10.25c13.34,4.91,24.77,10.48,34.18,15.76c0.89,0.61,5.26,3.75,6.27,9.61c0.67,3.9-0.49,7.02-1.06,8.32
	c-21.79,24.22-43.59,48.45-65.38,72.67c-2.91,0.44-8.7,0.93-15.41-1.37c-7.58-2.59-12.18-7.32-14.12-9.57
	c-0.48-14.36-0.96-28.71-1.43-43.07c-0.01-0.39-1.49-44.83-1.51-45.22c0-0.02-0.32-9.58-0.32-9.6
	C1447.79,1126.45,1451.02,1122.87,1456.57,1120.94z M1324.37,1146.88c2.8-3.37,5.99-5.15,7.92-6.03
	c9.83-4.71,21.73-9.58,35.55-13.66c13.64-4.02,26.13-6.37,36.83-7.75c1.08-0.04,6.46-0.13,10.77,3.97c2.87,2.73,3.8,5.93,4.12,7.3
	c-3.03,32.44-6.06,64.89-9.1,97.33c-2.07,2.09-6.43,5.94-13.18,8.1c-7.63,2.44-14.14,1.4-17.04,0.75
	c-8.95-11.23-17.9-22.47-26.85-33.7c-0.24-0.3-27.95-35.08-28.19-35.38c-0.01-0.01-5.97-7.5-5.98-7.51
	C1319.32,1158.13,1319.92,1152.23,1324.37,1146.88z M1232.77,1231.67c5.41-9.46,12.44-20.23,21.5-31.43
	c8.94-11.06,17.89-20.08,25.91-27.29c0.87-0.65,5.24-3.78,11.12-2.85c3.91,0.62,6.49,2.72,7.54,3.68
	c15.93,28.43,31.86,56.85,47.78,85.28c-0.52,2.9-1.92,8.54-6.25,14.15c-4.89,6.35-10.84,9.18-13.6,10.29
	c-13.75-4.16-27.5-8.33-41.24-12.49c-0.37-0.11-42.93-13-43.3-13.12c-0.02-0.01-9.18-2.78-9.19-2.78
	c-1.13-1.94-3.53-6.72-3.22-13.14C1230.06,1237.18,1231.71,1233.59,1232.77,1231.67z M1212.28,1384.26
	c-3.16-4.24-4.27-8.44-4.71-10.71c-1.33-10.82-2.16-23.65-1.61-38.05c0.54-14.21,2.29-26.79,4.4-37.38c0.31-1.04,1.94-6.17,7.2-8.94
	c3.5-1.85,6.83-1.71,8.24-1.57c29.78,13.22,59.56,26.44,89.35,39.66c1.32,2.63,3.58,7.99,3.47,15.07
	c-0.12,8.01-3.18,13.85-4.72,16.39c-13.5,4.9-27.01,9.8-40.51,14.7c-0.36,0.13-42.16,15.3-42.53,15.43
	c-0.02,0.01-9.01,3.27-9.03,3.28C1219.72,1391.13,1215.68,1388.82,1212.28,1384.26z M1287.98,1503.62
	c-1.46,0.56-6.68,2.35-12.84,0.29c-5.61-1.87-8.62-5.8-9.56-7.16c-7.36-8.03-15.48-18-23.4-30.04
	c-7.81-11.88-13.69-23.15-18.12-32.99c-0.35-1.02-2-6.14,0.67-11.46c1.78-3.54,4.56-5.36,5.79-6.06
	c31.92-6.53,63.85-13.06,95.77-19.59c2.6,1.37,7.55,4.43,11.58,10.26c4.56,6.59,5.45,13.12,5.67,16.09
	c-8.15,11.83-16.3,23.66-24.45,35.49c-0.22,0.32-25.44,36.94-25.66,37.26C1293.42,1495.72,1287.99,1503.6,1287.98,1503.62z
	 M1403.05,1561.53c-5.45,1.9-10.12,1.15-12.07,0.73c-10.7-2.08-23.15-5.27-36.67-10.25c-13.34-4.91-24.77-10.48-34.18-15.76
	c-0.89-0.61-5.26-3.75-6.27-9.61c-0.67-3.9,0.49-7.02,1.06-8.32c21.79-24.22,43.59-48.45,65.38-72.67c2.91-0.44,8.7-0.93,15.41,1.37
	c7.58,2.59,12.18,7.32,14.12,9.57c0.48,14.36,0.96,28.71,1.43,43.07c0.01,0.39,1.49,44.83,1.51,45.22c0,0.02,0.32,9.58,0.32,9.6
	C1411.83,1556.01,1408.6,1559.6,1403.05,1561.53z M1353.24,1342.63c0-44.26,35.88-80.13,80.13-80.13s80.13,35.88,80.13,80.13
	c0,44.26-35.88,80.13-80.13,80.13S1353.24,1386.88,1353.24,1342.63z M1536.48,1537.27c-2.8,3.37-5.99,5.15-7.92,6.03
	c-9.83,4.71-21.73,9.58-35.55,13.66c-13.64,4.02-26.13,6.37-36.83,7.75c-1.08,0.04-6.46,0.13-10.77-3.97
	c-2.87-2.73-3.8-5.93-4.12-7.3c3.03-32.44,6.06-64.89,9.1-97.33c2.07-2.09,6.43-5.94,13.18-8.1c7.63-2.44,14.14-1.4,17.04-0.75
	c8.95,11.23,17.9,22.47,26.85,33.7c0.24,0.3,27.95,35.08,28.19,35.38c0.01,0.01,5.97,7.5,5.98,7.51
	C1541.53,1526.01,1540.93,1531.91,1536.48,1537.27z M1630.21,1447.12c-5.41,9.46-12.44,20.23-21.5,31.43
	c-8.94,11.06-17.89,20.08-25.91,27.29c-0.87,0.65-5.24,3.78-11.12,2.85c-3.91-0.62-6.49-2.72-7.54-3.68
	c-15.93-28.43-31.86-56.85-47.78-85.28c0.52-2.9,1.92-8.54,6.25-14.15c4.89-6.35,10.84-9.18,13.6-10.29
	c13.75,4.16,27.5,8.33,41.24,12.49c0.37,0.11,42.93,13,43.3,13.12c0.02,0,9.18,2.78,9.19,2.78c1.13,1.94,3.53,6.72,3.22,13.14
	C1632.92,1441.61,1631.27,1445.2,1630.21,1447.12z M1652.61,1380.66c-0.31,1.04-1.94,6.17-7.2,8.94c-3.5,1.85-6.83,1.71-8.24,1.57
	c-29.78-13.22-59.56-26.44-89.35-39.66c-1.32-2.63-3.58-7.99-3.47-15.07c0.12-8.01,3.18-13.85,4.72-16.39
	c13.5-4.9,27.01-9.8,40.51-14.7c0.36-0.13,42.16-15.3,42.53-15.43c0.02-0.01,9.01-3.27,9.03-3.28c2.11,1.02,6.15,3.33,9.55,7.89
	c3.16,4.24,4.27,8.44,4.71,10.71c1.33,10.82,2.16,23.65,1.61,38.05C1656.48,1357.49,1654.72,1370.08,1652.61,1380.66z"/>
<g>
	<path class="st1" d="M1047.96,410.76c-137.68,8.47-278.9,5.17-414.88-16.08c-169.02-26.41-231.79-107.75-254.45-276.04
		c-0.28-2.06-5.46-3.45-11.4-6.96c-46.45,89.56-45.59,178.95-5.63,268.24C411.04,490.4,504.07,557.85,603.27,618.7
		c10.32,6.33,20.08,13.58,29.75,20.97c69.84,0.99,139.69,1.42,209.52,1.46c111.31,0.07,197.84,39.3,250.4,141.54
		c49.08,95.48,59.92,190.64,10.78,283.47c1.1-0.65,2.29-1.2,3.57-1.64c78.06-108.17,171.99-182.05,253.04-231.91
		c1.57-4.83,3.15-9.66,4.82-14.46C1451.57,569.57,1310.4,394.62,1047.96,410.76z"/>
	<path d="M1357.72,842.54c72.02-103.52,65.03-210.29,9.95-317.44c-52.56-102.24-139.09-141.46-250.4-141.54
		c-147.42-0.1-294.9-1.82-442.2-7.15c-36.43-1.32-73.64-15.9-108.09-30.18c-110.1-45.62-155.81-118.88-153.08-238.52
		c0.39-17,0.8-33.99-14.41-61.26c-22.72,28.66-52.93,54.11-66.8,86.55c-48.34,113.06-28.42,220.37,39.97,320.45
		c4.06,5.94,8.15,22.53,21.22,39.59c12.07,15.75,25.35,25.95,34.66,32.09c70.29,51.14,140.58,102.28,210.87,153.42
		c5.11-6.96,10.22-13.93,15.32-20.89c-17.07-12.52-33.36-26.32-51.35-37.36C504.19,559.45,411.15,492,361.72,381.53
		c-39.96-89.29-40.82-178.68,5.63-268.24c5.94,3.5,11.12,4.9,11.4,6.96c22.67,168.28,85.43,249.63,254.45,276.04
		c135.98,21.25,277.2,24.54,414.88,16.08c262.44-16.14,403.61,158.81,317.19,407.37C1362.64,827.29,1360.23,834.93,1357.72,842.54z"
		/>
</g>
<path d="M1433.36,825.98c-285.3,0.01-498.07,255.56-498.3,517.77c-0.2,222.82,153.1,429.22,381.91,503.57
	c77.4-0.03,154.81-0.05,232.21-0.08c229.04-74.06,382.62-280.52,382.48-503.49C1931.5,1080.95,1717.78,825.97,1433.36,825.98z
	 M1433.36,1608.8c-140.88,0-255.09-118.67-255.09-265.05s114.21-265.05,255.09-265.05c140.88,0,255.09,118.67,255.09,265.05
	S1574.24,1608.8,1433.36,1608.8z"/>
<path class="st2" d="M672.05,1604.44c-1.27-1.69-2.54-3.38-3.82-5.07C669.51,1601.06,670.78,1602.75,672.05,1604.44z"/>
<g>
	<path class="st1" d="M1090.8,1343.75c0-68.78,18.81-132.97,51.3-187.42l-51.75-37.6c-39.62,65.12-62.57,142.28-62.57,225.02
		c0,81.79,22.44,158.13,61.23,222.77l51.73-37.58C1109.06,1474.98,1090.8,1411.58,1090.8,1343.75z"/>
	<path class="st3" d="M1433.61,987.55c30.56,0,60.17,4.21,88.37,12.01l20.21-62.2c-34.56-9.95-70.97-15.29-108.58-15.29
		c-129.24,0-244.36,62.78-318.68,160.58l51.8,37.64C1229.57,1039.36,1325.75,987.55,1433.61,987.55z"/>
	<path class="st4" d="M1838.94,1364.54h-63.15c-7.76,140.06-93.4,258.38-212.61,309l20.22,62.22
		C1727.52,1676.26,1831.05,1533.45,1838.94,1364.54z"/>
	<path class="st5" d="M1433.61,1699.95c-108.78,0-205.65-52.71-268.45-134.82l-51.8,37.63c74.26,98.99,190.1,162.67,320.25,162.67
		c37.61,0,74.02-5.34,108.58-15.29l-20.21-62.2C1493.78,1695.74,1464.18,1699.95,1433.61,1699.95z"/>
	<path class="st6" d="M1775.64,1320.91h63.2c-8.63-168.01-111.91-309.91-255.44-369.17l-20.22,62.22
		C1681.81,1064.33,1767.16,1181.74,1775.64,1320.91z"/>
</g>
<path class="st1" d="M772.65,670.65c-43.76,2.69-87.87,4.18-132.06,4.3c-0.66,0.91-1.33,1.81-1.99,2.72
	c-1.25-0.91-2.5-1.82-3.75-2.73c-92.95-0.01-186.18-6.16-277.07-20.36c-169.02-26.41-231.79-107.75-254.45-276.04
	c-0.28-2.06-5.46-3.45-11.39-6.96c-46.45,89.56-45.59,178.95-5.63,268.24c49.43,110.47,142.46,177.91,241.67,238.76
	c17.99,11.03,34.28,24.83,51.35,37.36c-5.11,6.96-10.22,13.93-15.32,20.89c-76.86-50.51-153.73-101.02-230.59-151.53
	c45.43,161.24,175.41,225.62,313.7,280.79c-3.63,7.48-7.26,14.97-10.88,22.45c-58.33-16.96-116.66-33.92-175-50.88
	c-2.61,7.77-5.22,15.55-7.83,23.32c71.47,86.81,188.02,86.27,280.78,135.82c-39.9,3.98-79.8,7.96-119.71,11.94
	c0.1,7.69,0.2,15.37,0.3,23.06c119.8,71.68,257.75,53.28,390.69,68.34c-26.72,14.19-53.59,16.65-79.53,22.93
	c-26.92,6.52-52.95,16.74-93.58,29.97c61.69,24.09,122.28,22.55,173.5,0.85c46.16-19.56,80.06-60.47,89.33-71.1
	c33.94-38.94,39.01-65.78,74.94-91.36c25.7-18.29,52.15-25.41,70.09-28.57c12.72-10.7,20.95-21.44,26.06-29.24
	c8.05-12.28,12.38-23.43,16.02-32.78c0,0,3.61-11.47,7.55-22.81C1176.26,829.46,1035.09,654.51,772.65,670.65z"/>
<path d="M1082.25,1100.67c72.02-103.52,65.03-210.29,9.95-317.44c-52.56-102.24-139.09-141.46-250.4-141.54
	c-147.42-0.1-294.9-1.82-442.2-7.15c-36.43-1.32-73.64-15.9-108.09-30.18c-110.1-45.62-155.81-118.88-153.08-238.52
	c0.39-17,0.8-33.99-14.41-61.26c-22.72,28.66-52.93,54.11-66.8,86.55C8.88,504.18,28.8,611.5,97.19,711.57
	c14.75,21.58,32.98,37.21,11.72,72.28c-11.27,18.59,7.3,64.45,24.76,89.32c32.73,46.6,74.44,86.89,113.6,131.14
	c-38.88,80.09-20.38,101.99,152.58,174.11c-19.74,83.52,12.03,103.47,218.86,137.45c-1.35,74.44,13.23,88.02,89.88,88.23
	c98.47,0.26,173.59-39.2,229.38-121.75c25.89-38.3,62.19-69.56,110.28-122.01c-37.67,12.26-65.77,13.43-80.81,28.03
	c-28.11,27.29-48.72,62.33-72.31,94.25c-58.18,78.7-158.94,110.82-262.83,70.25c40.63-13.23,66.66-23.45,93.58-29.97
	c25.94-6.28,52.8-8.74,79.53-22.93c-132.94-15.06-270.89,3.34-390.69-68.34c-0.1-7.69-0.2-15.37-0.3-23.06
	c39.9-3.98,79.8-7.96,119.71-11.94c-92.76-49.56-209.31-49.01-280.78-135.82c2.61-7.77,5.22-15.55,7.83-23.32
	c58.33,16.96,116.66,33.92,175,50.88c3.63-7.48,7.26-14.97,10.88-22.45c-138.3-55.17-268.27-119.55-313.7-280.79
	c76.86,50.51,153.73,101.02,230.59,151.53c5.11-6.96,10.22-13.93,15.32-20.89c-17.07-12.52-33.36-26.32-51.35-37.36
	c-99.2-60.85-192.24-128.29-241.67-238.76c-39.96-89.29-40.82-178.68,5.63-268.24c5.94,3.5,11.12,4.9,11.39,6.96
	c22.67,168.28,85.43,249.63,254.45,276.04c135.98,21.25,277.2,24.54,414.88,16.08c262.44-16.14,403.61,158.81,317.19,407.37
	C1087.17,1085.42,1084.76,1093.06,1082.25,1100.67z"/>
<polygon class="st7" points="962.17,907.91 983.18,950.49 1030.17,957.32 996.17,990.46 1004.2,1037.26 962.17,1015.16 
	920.14,1037.26 928.16,990.46 894.16,957.32 941.15,950.49 "/>
<polygon class="st7" points="693.41,731.88 714.42,774.46 761.41,781.29 727.41,814.44 735.44,861.24 693.41,839.14 651.38,861.24 
	659.41,814.44 625.4,781.29 672.39,774.46 "/>
<polygon class="st7" points="557.4,917.87 578.41,960.45 625.4,967.28 591.4,1000.42 599.43,1047.22 557.4,1025.13 515.37,1047.22 
	523.39,1000.42 489.39,967.28 536.38,960.45 "/>
<polygon class="st7" points="1202.9,667.21 1223.92,709.79 1270.91,716.62 1236.9,749.76 1244.93,796.56 1202.9,774.46 
	1160.87,796.56 1168.9,749.76 1134.9,716.62 1181.89,709.79 "/>
<polygon class="st7" points="309.34,676.76 323.8,718.39 370.79,725.22 343.34,759.32 351.37,806.12 309.34,784.02 267.31,806.12 
	275.34,759.32 241.33,726.17 288.32,719.35 "/>
<polygon class="st7" points="826.16,488.72 847.17,531.3 894.16,538.12 860.16,571.27 868.18,618.07 826.16,595.97 784.13,618.07 
	792.15,571.27 758.15,538.12 805.14,531.3 "/>
<polygon class="st7" points="569.5,412.96 590.51,455.54 637.5,462.37 603.5,495.51 611.53,542.32 569.5,520.22 527.47,542.32 
	535.5,495.51 501.49,462.37 548.48,455.54 "/>
<polygon class="st7" points="786.18,1095 807.19,1137.58 854.18,1144.41 820.18,1177.55 828.21,1224.35 786.18,1202.26 
	744.15,1224.35 752.18,1177.55 718.17,1144.41 765.16,1137.58 "/>
<polygon class="st7" points="1084.95,459.56 1105.96,502.14 1152.95,508.97 1118.95,542.11 1126.98,588.91 1084.95,566.82 
	1042.92,588.91 1050.94,542.11 1016.94,508.97 1063.93,502.14 "/>
<path class="st8" d="M2044.93,1193.82"/>
<path class="st9" d="M1694.04,1200.05c-8.74-16.58-76.3-139.65-220.22-159.65c-119.71-16.64-206.2,49.98-222.9,63.42
	c-103.75,83.51-110.55,205.22-111.34,228.87c-0.65,19.46-3.02,167.99,121.25,258.55c83.91,61.15,195.66,74.1,289.51,33.53
	c98.53-42.59,139.47-127.8,149.88-150.36C1707.29,1459.11,1763.42,1331.73,1694.04,1200.05z M1664.56,1456.82
	c-9.02,19.54-44.47,93.34-129.81,130.22c-81.28,35.13-178.07,23.92-250.74-29.04c-107.63-78.44-105.58-207.08-105.02-223.93
	c0.68-20.49,6.57-125.9,96.43-198.23c14.46-11.64,89.37-69.33,193.05-54.92c124.65,17.32,183.17,123.91,190.74,138.27
	C1719.3,1333.23,1670.69,1443.56,1664.56,1456.82z"/>
<g>
	<path d="M1498.26,747.12l-6.96,4.14c-6.29,4.28-13.53,11.3-21.74,21.05l-18.91,24.2c-0.9,1.2-1.78,2.31-2.64,3.31l19.28,0.44
		c8.43,0.12,14.87,0.32,19.32,0.59c4.35,0.27,7.55,0.66,9.61,1.19c2.64,0.69,3.94,2.13,3.91,4.31c-0.03,1.62-0.64,2.87-1.82,3.76
		c-1.04,0.76-2.3,1.1-3.79,1.01c-0.96-0.06-2.39-0.21-4.29-0.44c-1.91-0.23-3.34-0.38-4.29-0.44c-5.01-0.31-12.54-0.65-22.6-1.02
		c-10.05-0.37-17.59-0.71-22.6-1.02c-3.79-0.23-5.58-2.01-5.38-5.34c0.13-2.18,1.32-4.85,3.57-8.02l5.74-7.04l19.38-23.73
		c7.95-9.27,15.25-16.4,21.92-21.39l-17.37-0.07l-19.98-1.23c-0.36-0.02-0.9-0.03-1.61-0.02c-0.71,0.01-1.23,0-1.56-0.02
		c-3.5-0.21-5.14-2.02-4.93-5.42c0.14-2.24,1.12-3.67,2.94-4.29c1.12-0.39,2.93-0.51,5.43-0.36c2.28,0.14,5.65,0.59,10.12,1.34
		c4.47,0.75,7.84,1.2,10.12,1.34c2.54,0.16,6.35,0.23,11.43,0.21c5.08-0.02,8.91,0.05,11.48,0.21c8.47,0.52,12.61,2.38,12.41,5.58
		C1504.33,742.13,1502.26,744.52,1498.26,747.12z"/>
	<path d="M1522.2,791.03c-0.31,1.96-0.73,4.89-1.24,8.81c-0.51,3.92-0.93,6.85-1.24,8.81c-0.23,1.43-0.86,2.54-1.89,3.31
		s-2.26,1.04-3.69,0.81c-1.4-0.23-2.48-0.87-3.23-1.92c-0.75-1.06-1.01-2.3-0.78-3.74c0.31-1.96,0.73-4.89,1.24-8.81
		c0.51-3.91,0.93-6.85,1.24-8.81c0.49-3.06,1.27-6.86,2.33-11.39c1.06-4.53,1.84-8.33,2.33-11.39c0.24-1.47,0.88-2.59,1.92-3.36
		c1.04-0.77,2.27-1.04,3.67-0.82c1.4,0.23,2.48,0.87,3.23,1.92c0.75,1.06,1.01,2.32,0.77,3.79c-0.49,3.07-1.27,6.86-2.33,11.39
		C1523.47,784.17,1522.69,787.97,1522.2,791.03z M1526.38,750.96c-1.57-0.25-2.83-1.02-3.79-2.32c-0.96-1.29-1.32-2.72-1.07-4.29
		c0.25-1.56,1.04-2.81,2.36-3.74c1.32-0.92,2.76-1.26,4.33-1.01c1.57,0.25,2.82,1.02,3.77,2.31c0.95,1.29,1.29,2.72,1.04,4.28
		c-0.25,1.57-1.03,2.81-2.33,3.74C1529.38,750.87,1527.95,751.21,1526.38,750.96z"/>
	<path d="M1555.67,823.37c-7.25-1.79-12.67-5.04-16.27-9.77c-3.92-5.22-4.99-11.43-3.21-18.65c2.06-8.34,5.8-14.83,11.23-19.48
		c5.91-5.07,12.54-6.71,19.88-4.9c5.32,1.31,9.45,3.28,12.37,5.91c3.59,3.23,4.82,7.14,3.69,11.73c-0.79,3.21-3.32,5.68-7.59,7.42
		c-1.89,0.76-5.73,1.72-11.53,2.88l-20.52,4.18c1.14,3.1,2.88,5.66,5.23,7.67c2.35,2.01,5.3,3.45,8.86,4.33
		c2.21,0.54,4.91,0.77,8.1,0.67c4.04-0.13,6.82-0.91,8.34-2.36c1.51-1.45,2.89-2.02,4.15-1.71c1.12,0.28,2.02,0.95,2.69,2.02
		c0.67,1.07,0.87,2.16,0.59,3.28c-0.88,3.56-4.5,5.92-10.87,7.07C1565.37,824.6,1560.32,824.52,1555.67,823.37z M1565.17,779.23
		c-3.91-0.96-7.54-0.25-10.89,2.14c-3.34,2.39-6.41,6.47-9.19,12.25l16.5-3.39c6.5-1.39,11.24-2.83,14.22-4.3
		C1573.68,782.68,1570.14,780.45,1565.17,779.23z"/>
	<path d="M1642.76,855.02c-2.52-0.98-3.48-2.89-2.87-5.74c0.76-3.6,2.06-8.59,3.9-14.96l3.99-14.93c0.52-2.24,0.8-4.53,0.85-6.84
		c0.03-3.18-0.57-5.01-1.8-5.48c-1.14-0.44-3.64-0.3-7.5,0.43c-3.65,0.64-6.14,1.32-7.49,2.04c-1.15,2.88-2.2,5.81-3.14,8.77
		l-3.4,12.87c-1.3,5.09-2.57,9.22-3.8,12.4c-0.53,1.35-1.38,2.31-2.57,2.86c-1.19,0.55-2.44,0.57-3.77,0.05
		c-1.32-0.51-2.24-1.37-2.75-2.58c-0.51-1.21-0.5-2.49,0.03-3.84c1.45-3.73,3.21-9.38,5.28-16.95c2.07-7.57,3.83-13.23,5.28-16.95
		c1.27-3.26,1.79-5.98,1.57-8.16c-2.54,0.15-5.35,0.9-8.42,2.26l-7.82,3.98c-0.78,0.55-1.94,1.21-3.49,1.99
		c-0.72,1.85-1.94,4.51-3.68,7.98c-1.74,3.47-2.94,6.07-3.61,7.79c-0.36,0.92-0.71,2.27-1.07,4.05c-0.35,1.78-0.67,3.03-0.96,3.77
		c-0.49,1.26-1.37,2.14-2.65,2.64c-1.27,0.5-2.54,0.5-3.8,0.01c-3.48-1.35-3.68-5.98-0.61-13.9c0.72-1.85,1.96-4.54,3.72-8.07
		c1.76-3.53,3-6.22,3.72-8.07c0.63-1.63,1.44-4.14,2.41-7.51c0.97-3.38,1.78-5.9,2.43-7.56c2.71-6.99,5.64-9.87,8.78-8.66
		c1.2,0.47,2.1,1.42,2.69,2.85c0.59,1.43,0.65,2.77,0.17,4c-0.23,0.59-0.66,1.46-1.29,2.64c-0.63,1.17-1.07,2.08-1.33,2.73
		l-1.79,4.89c2.88-2.67,6.39-4.74,10.54-6.19c4.14-1.46,7.31-1.76,9.49-0.91c4.83,1.88,7.23,5.57,7.18,11.08
		c2.57-1.59,5.24-2.49,8.01-2.71c2.78-0.22,5.67,0.26,8.69,1.43c5.14,2,7.58,6.13,7.3,12.4c-0.06,1.25-1.11,5.82-3.14,13.71
		c-1.19,5.63-3.51,14.88-6.95,27.76c-0.39,1.27-1.21,2.15-2.47,2.66C1645.38,855.54,1644.09,855.53,1642.76,855.02z"/>
	<path d="M1688.26,878.65c-2.5-1.35-3.18-3.47-2.03-6.38l3.92-10.21c1.42-3.62,2.93-6.92,4.53-9.89c0.44-0.81,1.23-2.17,2.38-4.06
		c1.15-1.89,1.94-3.25,2.38-4.06c3.38-6.28,3.9-10.05,1.58-11.3c-3.26-1.75-7.41-1.49-12.46,0.78c-4.57,2.08-9.06,5.41-13.46,9.98
		c-0.67,1.1-1.57,2.46-2.69,4.07c-0.96,1.36-1.8,2.72-2.54,4.09c-0.47,0.87-1.09,2.23-1.85,4.07s-1.38,3.2-1.85,4.07
		c-0.7,1.31-1.67,2.16-2.91,2.54c-1.24,0.38-2.48,0.24-3.73-0.43c-1.28-0.69-2.09-1.65-2.44-2.89c-0.35-1.24-0.17-2.51,0.54-3.82
		c0.47-0.87,1.08-2.23,1.83-4.08c0.75-1.85,1.36-3.21,1.83-4.08c1.61-3,4.06-7.04,7.33-12.12c3.28-5.08,5.72-9.12,7.33-12.12
		c0.5-0.93,1.19-2.34,2.08-4.23c0.88-1.89,1.58-3.3,2.08-4.23c0.67-1.25,1.64-2.05,2.9-2.41c1.26-0.35,2.5-0.2,3.72,0.45
		c2.68,1.44,3.13,4.12,1.36,8.04l-2.61,5.18c8.39-3.89,15.16-4.45,20.31-1.68c4.65,2.5,6.79,6.3,6.42,11.39
		c-0.22,3.41-1.71,7.82-4.47,13.23l-2.37,4.41l-2.23,4.03c-1.3,2.42-2.66,5.7-4.1,9.86c-1.43,4.16-2.79,7.44-4.07,9.82
		c-0.69,1.28-1.66,2.1-2.92,2.45C1690.77,879.48,1689.51,879.32,1688.26,878.65z"/>
	<path d="M1723.57,870.21c-1.07,1.67-2.61,4.2-4.64,7.59c-2.02,3.39-3.57,5.92-4.64,7.59c-0.78,1.23-1.8,1.99-3.05,2.29
		c-1.25,0.3-2.49,0.06-3.71-0.72c-1.2-0.76-1.93-1.78-2.2-3.05s-0.01-2.51,0.77-3.74c1.07-1.67,2.61-4.2,4.64-7.59
		c2.02-3.39,3.57-5.92,4.64-7.59c1.67-2.62,3.89-5.79,6.67-9.53c2.77-3.74,5-6.91,6.67-9.53c0.8-1.25,1.83-2.03,3.09-2.32
		c1.26-0.29,2.49-0.05,3.69,0.71c1.2,0.76,1.93,1.78,2.2,3.05c0.27,1.27,0,2.53-0.8,3.78c-1.67,2.62-3.89,5.79-6.67,9.53
		C1727.46,864.42,1725.24,867.59,1723.57,870.21z M1743.33,835.1c-1.34-0.85-2.19-2.06-2.56-3.63c-0.37-1.57-0.13-3.02,0.72-4.36
		c0.85-1.34,2.07-2.17,3.65-2.49c1.58-0.32,3.04-0.06,4.37,0.79c1.34,0.85,2.18,2.06,2.54,3.62c0.36,1.56,0.11,3.01-0.74,4.34
		c-0.85,1.34-2.06,2.17-3.63,2.51C1746.12,836.21,1744.67,835.95,1743.33,835.1z"/>
	<path d="M1753.58,923.27c-0.5-0.38-0.98-1.64-1.44-3.79c-0.38-1.97-0.55-3.6-0.5-4.88c-3.57-0.52-6.58-1.15-9.04-1.88
		c-2.46-0.74-4.33-1.59-5.63-2.56c-6.2-4.62-9.41-9.73-9.64-15.34c-0.23-5.28,2.18-11.31,7.24-18.09
		c4.78-6.41,11.06-10.25,18.87-11.52c7.8-1.27,14.77,0.37,20.88,4.93c2.31,1.72,4.44,4.24,6.42,7.56c2.5,4.17,2.97,7.3,1.41,9.39
		c-0.53,0.72-1.27,1.15-2.22,1.32c-1.02,0.81-2.45,2.31-4.32,4.51c-1.86,2.2-4.15,5.08-6.86,8.67c-2.47,3.26-4.18,6.03-5.13,8.29
		c-0.6,1.36-1.51,4.32-2.71,8.86c-0.17,0.61-0.39,1.54-0.66,2.79l-0.26,0.85c-0.79,1.06-1.81,1.66-3.07,1.79
		C1755.68,924.29,1754.56,924,1753.58,923.27z M1765.89,889.5c0.85-1.14,1.84-2.32,2.99-3.55c1.14-1.23,2.42-2.49,3.84-3.78
		c-0.61-1.23-1.17-2.23-1.69-2.99c-0.53-0.76-1-1.3-1.42-1.62c-4.11-3.06-8.9-4.02-14.37-2.89c-5.48,1.13-9.84,3.88-13.1,8.25
		c-3.24,4.34-4.89,8.17-4.98,11.49c-0.08,3.32,1.41,6.12,4.49,8.41c2.54,1.89,5.05,3.04,7.51,3.43c1.33,0.21,3.42,0.2,6.26-0.03
		C1759.79,898.57,1763.29,892.99,1765.89,889.5z"/>
	<path d="M1793.75,957.15c-1.35-1.22-1.75-2.87-1.2-4.96c0.96-3.63,1.69-8.29,2.17-14l1.5-14.74c-2.44-0.16-6.07-0.57-10.9-1.24
		c-3.71,3.55-7.18,7.13-10.44,10.73c-1,1.1-2.14,1.69-3.44,1.77c-1.29,0.08-2.47-0.36-3.52-1.31c-2.47-2.24-2.21-5.02,0.81-8.35
		c1.84-2.03,4.73-4.95,8.68-8.75c3.95-3.8,6.84-6.72,8.68-8.75c3.37-3.72,7.27-7.93,11.71-12.62c4.44-4.69,8.32-8.87,11.65-12.55
		c1-1.1,2.12-2.45,3.36-4.04c1.24-1.59,2.36-2.94,3.36-4.04c1-1.1,2.14-1.69,3.44-1.77c1.29-0.08,2.47,0.36,3.52,1.31
		c1.05,0.95,1.61,2.08,1.66,3.37c0.05,1.3-0.42,2.49-1.42,3.6c-1.02,1.13-2.16,2.51-3.42,4.15c-1.26,1.64-2.4,3.03-3.42,4.15
		l-10.96,11.6c-3.98,4.15-7.87,8.38-11.68,12.69c5.64,0.46,11.37,0.57,17.2,0.33l15.63-1.03c1.56-0.1,2.81,0.27,3.74,1.11
		c0.96,0.86,1.47,2.02,1.56,3.48c0.08,1.46-0.33,2.69-1.24,3.69c-0.75,0.83-1.85,1.33-3.29,1.5c-6.2,0.8-13.34,1.23-21.4,1.29
		l-1.86,18.16c-0.88,8.51-2.02,13.54-3.42,15.08c-0.89,0.98-2.04,1.48-3.45,1.49C1795.96,958.5,1794.75,958.06,1793.75,957.15z"/>
	<path d="M1827.86,957.43c-1.43,1.37-3.54,3.46-6.31,6.27c-2.78,2.81-4.88,4.9-6.31,6.27c-1.05,1-2.22,1.5-3.5,1.5
		c-1.29-0.01-2.43-0.53-3.43-1.59c-0.98-1.03-1.45-2.19-1.41-3.48c0.04-1.3,0.59-2.45,1.64-3.45c1.43-1.37,3.54-3.46,6.31-6.27
		c2.77-2.81,4.88-4.9,6.31-6.27c2.24-2.14,5.16-4.7,8.74-7.67c3.58-2.97,6.5-5.52,8.74-7.67c1.07-1.03,2.26-1.53,3.56-1.51
		c1.3,0.02,2.44,0.54,3.42,1.57c0.98,1.03,1.45,2.19,1.41,3.48c-0.04,1.3-0.6,2.46-1.67,3.48c-2.25,2.14-5.16,4.7-8.74,7.67
		C1833.02,952.73,1830.11,955.29,1827.86,957.43z M1855.42,928.04c-1.1-1.15-1.64-2.53-1.62-4.14c0.01-1.61,0.59-2.97,1.74-4.06
		c1.15-1.09,2.52-1.61,4.14-1.55c1.61,0.06,2.96,0.66,4.06,1.81c1.09,1.15,1.63,2.52,1.6,4.12c-0.03,1.6-0.61,2.95-1.76,4.04
		c-1.15,1.09-2.52,1.62-4.12,1.57C1857.86,929.78,1856.51,929.18,1855.42,928.04z"/>
	<path d="M1879.71,993.2l-19.9,14.52c-2.06,1.6-5.17,3.85-9.32,6.74c-2.81,1.77-5.11,1.5-6.89-0.79c-1.99-2.56-1.65-4.87,1.01-6.93
		c3.16-2.45,8.01-5.99,14.56-10.62c6.55-4.63,11.4-8.17,14.56-10.62c4.12-3.2,8.89-6.8,14.3-10.79c5.41-3.99,10.17-7.59,14.29-10.79
		c2.61-2.03,4.9-1.76,6.89,0.79c2.01,2.58,1.71,4.89-0.9,6.91c-4.12,3.2-8.89,6.8-14.3,10.79
		C1888.6,986.4,1883.84,990,1879.71,993.2z"/>
	<path d="M1868.52,1048.6c-4.15-6.21-5.95-12.27-5.41-18.19c0.63-6.49,4.04-11.81,10.22-15.93c7.14-4.77,14.29-7.03,21.43-6.8
		c7.79,0.24,13.78,3.51,17.98,9.8c3.04,4.56,4.76,8.8,5.14,12.71c0.47,4.81-1.26,8.53-5.19,11.15c-2.75,1.83-6.28,1.95-10.61,0.35
		c-1.91-0.71-5.39-2.6-10.45-5.66l-17.96-10.77c-1.25,3.06-1.69,6.12-1.31,9.19c0.38,3.06,1.58,6.12,3.62,9.17
		c1.27,1.9,3.11,3.88,5.53,5.96c3.07,2.64,5.65,3.93,7.75,3.89c2.09-0.05,3.5,0.47,4.21,1.54c0.64,0.96,0.85,2.06,0.63,3.3
		c-0.22,1.24-0.82,2.18-1.78,2.82c-3.05,2.04-7.31,1.33-12.79-2.12C1874.84,1056.06,1871.18,1052.59,1868.52,1048.6z
		 M1905.32,1022.44c-2.24-3.35-5.4-5.27-9.48-5.77c-4.08-0.49-9.1,0.45-15.05,2.84l14.46,8.64c5.74,3.36,10.2,5.5,13.4,6.42
		C1909.27,1030.74,1908.16,1026.69,1905.32,1022.44z"/>
	<path d="M1902.51,1108.9c-0.3-0.55-0.2-1.9,0.29-4.04c0.48-1.95,1.02-3.5,1.6-4.64c-3.02-1.97-5.49-3.81-7.41-5.51
		c-1.92-1.7-3.26-3.27-4.03-4.69c-3.68-6.8-4.44-12.79-2.29-17.97c2.01-4.88,6.74-9.34,14.18-13.36c7.03-3.8,14.35-4.64,21.97-2.51
		c7.61,2.13,13.24,6.55,16.87,13.26c1.37,2.53,2.25,5.71,2.64,9.56c0.51,4.83-0.38,7.87-2.67,9.11c-0.78,0.42-1.64,0.51-2.56,0.26
		c-1.26,0.31-3.2,1.06-5.81,2.27c-2.61,1.21-5.9,2.87-9.87,4.98c-3.62,1.92-6.33,3.71-8.14,5.36c-1.12,0.98-3.18,3.28-6.18,6.9
		c-0.41,0.49-1,1.24-1.77,2.25l-0.6,0.66c-1.16,0.63-2.34,0.74-3.54,0.34C1903.98,1110.72,1903.1,1109.98,1902.51,1108.9z
		 M1927.89,1083.45c1.25-0.68,2.65-1.33,4.2-1.97c1.55-0.64,3.24-1.24,5.07-1.82c-0.03-1.37-0.12-2.52-0.28-3.43
		c-0.16-0.91-0.36-1.6-0.61-2.06c-2.44-4.5-6.38-7.39-11.82-8.67c-5.44-1.28-10.56-0.62-15.36,1.97c-4.76,2.58-7.88,5.35-9.35,8.33
		c-1.47,2.97-1.29,6.15,0.53,9.52c1.51,2.79,3.3,4.88,5.37,6.28c1.12,0.75,3.01,1.62,5.69,2.61
		C1918.54,1089.11,1924.06,1085.53,1927.89,1083.45z"/>
	<path d="M1946.2,1146.85l-15.74,5.53c-6.15,2.43-11.38,3.94-15.69,4.53c-5.5,0.75-10.07,0.12-13.7-1.88
		c-4.39-2.43-8.06-7.09-11.02-13.98c-1.74-4.04-2.92-7.54-3.54-10.5c-0.89-4.15-0.13-6.74,2.27-7.77c2.7-1.16,4.62-0.42,5.75,2.22
		c0.47,1.09,0.99,3.03,1.55,5.8c0.56,2.78,1.54,5.7,2.93,8.77c2.6,5.79,7.15,8.59,13.65,8.42c4.33-0.14,10.35-1.81,18.07-5.02
		c-3.74-0.33-6.85-1.31-9.34-2.91c-2.49-1.61-4.36-3.87-5.61-6.78c-2.36-5.49-2.41-10.77-0.14-15.82
		c2.27-5.06,6.39-8.87,12.37-11.44c8.19-3.52,15.8-4.01,22.83-1.46c7.25,2.64,12.67,8.14,16.27,16.52c1.21,2.82,1.87,5.35,1.96,7.57
		c0.09,2.22-0.37,4.15-1.4,5.78c1.31,3.29,0.2,5.69-3.32,7.2c-2.15,0.93-5.17,1.85-9.06,2.76
		C1950.8,1145.5,1947.77,1146.32,1946.2,1146.85z M1959.63,1123.76c-2.48-5.77-6.38-9.37-11.72-10.82
		c-4.79-1.28-9.95-0.74-15.47,1.64c-4.4,1.89-7.35,4.15-8.85,6.77c-1.5,2.62-1.53,5.6-0.09,8.94c1.32,3.07,4.32,5.3,9.02,6.69
		c4.31,1.24,8.1,1.37,11.38,0.39c3.55-0.77,8.99-2.3,16.31-4.58c0.42-1.62,0.58-3.18,0.47-4.68
		C1960.58,1126.61,1960.23,1125.16,1959.63,1123.76z"/>
	<path d="M1965.62,1202.38c-2.38,0.11-5.94,0.28-10.69,0.53c-4.75,0.25-8.31,0.42-10.69,0.53c-0.73,0.03-1.83,0.14-3.31,0.32
		c-1.48,0.18-2.58,0.29-3.31,0.32c-1.42,0.06-2.6-0.36-3.55-1.28c-0.95-0.92-1.46-2.07-1.52-3.45c-0.11-2.54,1.38-4.23,4.49-5.06
		c-2.33-4.03-3.61-8.73-3.86-14.11c-0.19-4.32,0.6-7.95,2.39-10.87c1.97-3.23,4.97-5.23,9-6.01c8.69-1.68,16.45-2.67,23.28-2.98
		c4.52-0.2,9.69,0.06,15.51,0.79c2.89,0.33,4.4,1.84,4.52,4.51c0.06,1.42-0.34,2.63-1.2,3.62c-0.87,1-2.01,1.53-3.43,1.59
		c-1.52,0.07-3.95-0.06-7.31-0.39c-3.35-0.33-5.9-0.45-7.65-0.38c-5.51,0.25-10.22,0.64-14.13,1.18c-3.91,0.54-7.04,1.22-9.38,2.06
		c-0.55,1.12-0.95,2.21-1.22,3.28c-0.27,1.07-0.38,2.12-0.33,3.14c0.2,4.42,1.12,9.06,2.76,13.91l10.05-0.5l9.6-0.53
		c7.13-0.32,13.33-0.28,18.6,0.11c3.05,0.23,4.64,1.76,4.77,4.6c0.06,1.42-0.35,2.63-1.23,3.63c-0.88,1-2.02,1.5-3.41,1.49
		L1965.62,1202.38z"/>
	<path d="M1935.9,1236.37c-0.33-7.46,1.26-13.58,4.78-18.37c3.9-5.23,9.56-8.02,16.98-8.35c8.58-0.38,15.86,1.37,21.86,5.27
		c6.54,4.24,9.98,10.13,10.31,17.69c0.25,5.48-0.48,9.99-2.17,13.54c-2.09,4.36-5.49,6.64-10.21,6.85c-3.3,0.15-6.39-1.58-9.26-5.19
		c-1.26-1.6-3.27-5.01-6.01-10.25l-9.81-18.51c-2.66,1.97-4.61,4.36-5.88,7.18c-1.26,2.82-1.81,6.06-1.65,9.72
		c0.1,2.28,0.65,4.93,1.65,7.96c1.26,3.85,2.8,6.29,4.62,7.33c1.81,1.04,2.75,2.21,2.81,3.49c0.05,1.15-0.34,2.2-1.17,3.15
		c-0.83,0.95-1.83,1.45-2.98,1.5c-3.66,0.16-6.95-2.65-9.85-8.44C1937.46,1246.02,1936.12,1241.15,1935.9,1236.37z M1980.93,1233.01
		c-0.18-4.03-1.89-7.31-5.13-9.84c-3.24-2.53-8.02-4.32-14.35-5.36l7.91,14.87c3.17,5.84,5.89,9.99,8.14,12.43
		C1980.02,1242.16,1981.16,1238.13,1980.93,1233.01z"/>
</g>
</svg>
